HIERARCHY
ROOT Hips
{
 OFFSET 0.000000 0.000000 0.000000
 CHANNELS 6 Xposition Yposition Zposition Yrotation Xrotation Zrotation
 JOINT Chest
 {
  OFFSET 0.000000 14.374500 -0.011500
  CHANNELS 3 Yrotation Xrotation Zrotation
  JOINT Chest2
  {
   OFFSET 0.000000 9.203400 0.023400
   CHANNELS 3 Yrotation Xrotation Zrotation
   JOINT Chest3
   {
    OFFSET 0.000000 9.162700 0.000000
    CHANNELS 3 Yrotation Xrotation Zrotation
    JOINT Chest4
    {
     OFFSET 0.000000 9.153300 0.000000
     CHANNELS 3 Yrotation Xrotation Zrotation
     JOINT Neck
     {
      OFFSET 0.000000 13.353600 0.000000
      CHANNELS 3 Yrotation Xrotation Zrotation
      JOINT Head
      {
       OFFSET 0.000000 8.573800 0.049400
       CHANNELS 3 Yrotation Xrotation Zrotation
       End Site
       {
        OFFSET 0.000000 16.219200 0.026100
       }
      }
     }
     JOINT RightCollar
     {
      OFFSET -2.497100 8.876100 0.000000
      CHANNELS 3 Yrotation Xrotation Zrotation
      JOINT RightShoulder
      {
       OFFSET -12.289200 0.000000 0.000000
       CHANNELS 3 Yrotation Xrotation Zrotation
       JOINT RightElbow
       {
        OFFSET 0.000000 -28.194900 0.000000
        CHANNELS 3 Yrotation Xrotation Zrotation
        JOINT RightWrist
        {
         OFFSET 0.000000 -23.009700 0.007900
         CHANNELS 3 Yrotation Xrotation Zrotation
         End Site
         {
          OFFSET 0.000000 -17.151500 0.000000
         }
        }
       }
      }
     }
     JOINT LeftCollar
     {
      OFFSET 2.497100 8.876100 0.000000
      CHANNELS 3 Yrotation Xrotation Zrotation
      JOINT LeftShoulder
      {
       OFFSET 12.289200 0.000000 0.000000
       CHANNELS 3 Yrotation Xrotation Zrotation
       JOINT LeftElbow
       {
        OFFSET 0.000000 -28.194900 0.000000
        CHANNELS 3 Yrotation Xrotation Zrotation
        JOINT LeftWrist
        {
         OFFSET 0.000000 -23.009700 0.007900
         CHANNELS 3 Yrotation Xrotation Zrotation
         End Site
         {
          OFFSET 0.000000 -17.151500 0.000000
         }
        }
       }
      }
     }
    }
   }
  }
 }
 JOINT RightHip
 {
  OFFSET -11.777600 0.056700 0.005700
  CHANNELS 3 Yrotation Xrotation Zrotation
  JOINT RightKnee
  {
   OFFSET 0.000000 -39.966000 -0.004200
   CHANNELS 3 Yrotation Xrotation Zrotation
   JOINT RightAnkle
   {
    OFFSET 0.000000 -41.981900 0.027400
    CHANNELS 3 Yrotation Xrotation Zrotation
    JOINT RightToe
    {
     OFFSET 0.000000 -9.910600 16.950100
     CHANNELS 3 Yrotation Xrotation Zrotation
     End Site
     {
      OFFSET 0.000000 -1.461000 6.191600
     }
    }
   }
  }
 }
 JOINT LeftHip
 {
  OFFSET 11.777600 0.056700 0.005700
  CHANNELS 3 Yrotation Xrotation Zrotation
  JOINT LeftKnee
  {
   OFFSET 0.000000 -39.966000 -0.004200
   CHANNELS 3 Yrotation Xrotation Zrotation
   JOINT LeftAnkle
   {
    OFFSET 0.000000 -41.981900 0.027400
    CHANNELS 3 Yrotation Xrotation Zrotation
    JOINT LeftToe
    {
     OFFSET 0.000000 -9.910600 16.950100
     CHANNELS 3 Yrotation Xrotation Zrotation
     End Site
     {
      OFFSET 0.000000 -1.461000 6.191600
     }
    }
   }
  }
 }
}
MOTION
Frames: 7
Frame Time: 0.008333
0.000000 91.618700 0.000000 0.000000 -5.767877 0.000000 0.000000 11.653817 0.000000 0.000000 -5.885947 0.000000 0.000000 -0.000000 0.000000 0.000000 -0.000000 0.000000 0.000000 12.528835 0.000000 0.000000 0.711642 0.000000 0.000000 -0.000000 0.000000 0.000000 0.000000 -90.000000 0.000000 -2.309062 0.000000 0.000000 2.309062 0.000000 0.000000 -0.000000 0.000000 0.000000 -0.000000 90.000000 0.000000 -2.309062 0.000000 0.000000 2.309062 0.000000 0.000000 8.520406 0.000000 0.000000 1.905762 0.000000 -0.000000 -4.658285 0.000000 0.000000 -0.000000 0.000000 0.000000 8.520406 0.000000 0.000000 1.905762 0.000000 -0.000000 -4.658285 0.000000 0.000000 -0.000000 0.000000
5.067023 152.662035 49.344804 177.365721 -46.840465 -2.348235 3.836098 28.492120 2.850174 0.556931 5.262888 0.416817 0.890362 8.259560 0.676345 2.849415 22.953473 2.306295 -1.686041 13.746977 0.348063 -1.835155 -11.283434 0.737770 2.535792 -6.372394 -0.047143 10.405467 -22.532890 -8.488197 40.076101 -52.158852 -27.701766 24.485040 29.544669 -8.646884 -14.080107 -8.460906 -2.073434 -2.822582 -25.159094 6.426759 -32.596002 -49.164709 11.767582 -18.073114 6.101952 13.185989 6.712055 -30.369821 -1.187174 -80.049888 84.524941 -83.187232 1.048365 -24.814620 9.597486 0.064265 -0.250278 0.050365 -0.610702 -25.374099 -4.503109 107.113731 78.204004 116.128010 4.564315 -18.083982 -6.623509 0.101522 0.242146 0.049360
3.590411 145.626600 51.369777 177.462396 -46.825719 -2.512151 3.825583 28.479388 2.959370 0.554384 5.259745 0.416793 0.890949 8.260639 0.678810 2.848964 22.952315 2.310278 -1.690204 13.703287 0.323877 -1.834063 -11.329464 0.716288 2.520347 -6.381762 -0.048835 10.409948 -22.529294 -8.482330 40.124214 -52.150299 -27.741811 24.529393 29.575159 -8.533363 -14.096161 -8.473302 -2.052798 -2.804482 -25.141604 6.401005 -32.598380 -49.164086 11.776352 -18.068058 6.092996 13.183550 6.598206 -30.410282 -1.077836 -80.293961 84.522485 -83.436134 1.070686 -24.904924 9.615541 0.037154 -0.170922 0.021717 -0.725336 -25.375616 -4.398409 107.038280 78.210800 116.052615 4.602093 -17.976563 -6.609567 0.052951 0.162239 0.030975
2.373566 139.832749 53.037123 177.551284 -46.811898 -2.652161 3.807241 28.469138 3.045999 0.555672 5.256652 0.417214 0.893995 8.262595 0.680415 2.847830 22.951346 2.311916 -1.695884 13.650381 0.301530 -1.830026 -11.384280 0.688671 2.482303 -6.399825 -0.022986 10.422487 -22.531743 -8.470122 40.184472 -52.126463 -27.774461 24.582712 29.608758 -8.427388 -14.106038 -8.480049 -2.044007 -2.801394 -25.124967 6.397660 -32.597686 -49.145138 11.767595 -18.045645 6.045421 13.170388 6.497794 -30.444596 -0.991318 -80.475108 84.520343 -83.619539 1.085398 -24.974807 9.629822 0.014994 -0.097139 0.008763 -0.825672 -25.378264 -4.314880 106.993673 78.222013 116.009802 4.632113 -17.889533 -6.602238 0.023035 0.086835 0.013475
1.488987 135.648834 54.239945 177.603350 -46.804232 -2.723362 3.788186 28.465995 3.084011 0.558560 5.256491 0.416065 0.893637 8.262108 0.681586 2.847284 22.950862 2.315591 -1.698239 13.620438 0.286415 -1.821514 -11.473001 0.642884 2.465815 -6.410032 -0.006391 10.434304 -22.531152 -8.470749 40.225100 -52.117524 -27.803004 24.634878 29.642292 -8.326346 -14.115755 -8.487788 -2.018213 -2.793060 -25.104181 6.374374 -32.590168 -49.145583 11.769741 -18.036383 6.021333 13.170046 6.445880 -30.463026 -0.950872 -80.607273 84.519778 -83.756768 1.081502 -25.007368 9.642750 0.009818 -0.059653 0.005739 -0.883148 -25.375010 -4.279472 106.930565 78.228252 115.947375 4.639245 -17.844168 -6.602064 0.015539 0.051976 0.009088
0.931212 133.006565 54.999152 177.651918 -46.797443 -2.785968 3.768383 28.460946 3.114792 0.553496 5.264912 0.425215 0.893548 8.259051 0.676939 2.844590 22.950501 2.319869 -1.697606 13.587269 0.262158 -1.810720 -11.569603 0.587799 2.458473 -6.423374 0.003775 10.449750 -22.524072 -8.483455 40.241612 -52.111866 -27.812681 24.686280 29.670013 -8.230506 -14.111667 -8.498145 -2.020038 -2.804186 -25.085720 6.377270 -32.572054 -49.146828 11.759072 -18.032193 6.005500 13.182439 6.401620 -30.474125 -0.918457 -80.669683 84.522889 -83.827078 1.075364 -25.044053 9.659951 -0.000169 -0.024175 -0.000099 -0.940428 -25.380013 -4.252753 106.910971 78.225725 115.920804 4.649207 -17.798940 -6.596578 0.002640 0.016064 0.001544
0.622108 131.554041 55.415285 177.669353 -46.795410 -2.807400 3.759227 28.461403 3.128894 0.551868 5.269368 0.432440 0.888031 8.263141 0.688694 2.836273 22.945020 2.308682 -1.700127 13.525239 0.220232 -1.796068 -11.647940 0.532578 2.453994 -6.433106 0.009512 10.462649 -22.518664 -8.497461 40.264472 -52.117676 -27.829743 24.715787 29.696161 -8.171781 -14.134458 -8.496770 -1.981685 -2.776350 -25.077194 6.340242 -32.545138 -49.150407 11.743180 -18.026512 5.977744 13.178809 6.392805 -30.472988 -0.911179 -80.665006 84.522998 -83.819692 1.075675 -25.055362 9.663650 0.000276 -0.013359 0.000161 -0.962294 -25.381767 -4.244959 106.894452 78.223882 115.899250 4.651452 -17.780053 -6.593329 0.001024 0.004961 0.000599
